HIERARCHY
ROOT hip
{
  OFFSET 0 0 0
  CHANNELS 6 Xposition Yposition Zposition Zrotation Yrotation Xrotation
  JOINT abdomen
  {
    OFFSET 0 20.6881 -0.73152
    CHANNELS 3 Zrotation Xrotation Yrotation
    JOINT chest
    {
      OFFSET 0 11.7043 -0.48768
      CHANNELS 3 Zrotation Xrotation Yrotation
      JOINT neck
      {
        OFFSET 0 22.1894 -2.19456
        CHANNELS 3 Zrotation Xrotation Yrotation
        JOINT head
        {
          OFFSET -0.24384 7.07133 1.2192
          CHANNELS 3 Zrotation Xrotation Yrotation
          JOINT leftEye
          {
            OFFSET 4.14528 8.04674 8.04672
            CHANNELS 3 Zrotation Xrotation Yrotation
            End Site
            {
              OFFSET 1 0 0
            }
          }
          JOINT rightEye
          {
            OFFSET -3.6576 8.04674 8.04672
            CHANNELS 3 Zrotation Xrotation Yrotation
            End Site
            {
              OFFSET 1 0 0
            }
          }
        }
      }
      JOINT rCollar
      {
        OFFSET -2.68224 19.2634 -4.8768
        CHANNELS 3 Zrotation Xrotation Yrotation
        JOINT rShldr
        {
          OFFSET -8.77824 -1.95073 1.46304
          CHANNELS 3 Zrotation Xrotation Yrotation
          JOINT rForeArm
          {
            OFFSET -28.1742 -1.7115 0.48768
            CHANNELS 3 Zrotation Xrotation Yrotation
            JOINT rHand
            {
              OFFSET -22.5879 0.773209 7.07136
              CHANNELS 3 Zrotation Xrotation Yrotation
              JOINT rThumb1
              {
                OFFSET -1.2192 -0.487915 3.41376
                CHANNELS 3 Zrotation Xrotation Yrotation
                JOINT rThumb2
                {
                  OFFSET -3.37035 -0.52449 3.41376
                  CHANNELS 3 Zrotation Xrotation Yrotation
                  End Site
                  {
                    OFFSET -1.78271 -1.18214 1.43049
                  }
                }
              }
              JOINT rIndex1
              {
                OFFSET -7.75947 0.938293 5.60832
                CHANNELS 3 Zrotation Xrotation Yrotation
                JOINT rIndex2
                {
                  OFFSET -2.54057 -0.884171 1.56538
                  CHANNELS 3 Zrotation Xrotation Yrotation
                  End Site
                  {
                    OFFSET -1.62519 -0.234802 1.16502
                  }
                }
              }
              JOINT rMid1
              {
                OFFSET -8.24714 1.18213 3.41376
                CHANNELS 3 Zrotation Xrotation Yrotation
                JOINT rMid2
                {
                  OFFSET -3.10165 -0.590103 1.0647
                  CHANNELS 3 Zrotation Xrotation Yrotation
                  End Site
                  {
                    OFFSET -2.48547 -0.328903 0.83742
                  }
                }
              }
              JOINT rRing1
              {
                OFFSET -8.82822 0.546677 1.51678
                CHANNELS 3 Zrotation Xrotation Yrotation
                JOINT rRing2
                {
                  OFFSET -2.60934 -0.819778 -0.0198488
                  CHANNELS 3 Zrotation Xrotation Yrotation
                  End Site
                  {
                    OFFSET -2.33842 -0.294052 0.168128
                  }
                }
              }
              JOINT rPinky1
              {
                OFFSET -8.27202 -0.0477905 -0.4584
                CHANNELS 3 Zrotation Xrotation Yrotation
                JOINT rPinky2
                {
                  OFFSET -1.82734 -0.647385 -0.700984
                  CHANNELS 3 Zrotation Xrotation Yrotation
                  End Site
                  {
                    OFFSET -1.69225 -0.51767 -0.607171
                  }
                }
              }
            }
          }
        }
      }
      JOINT lCollar
      {
        OFFSET 2.68224 19.2634 -4.8768
        CHANNELS 3 Zrotation Xrotation Yrotation
        JOINT lShldr
        {
          OFFSET 8.77824 -1.95073 1.46304
          CHANNELS 3 Zrotation Xrotation Yrotation
          JOINT lForeArm
          {
            OFFSET 28.1742 -1.7115 0.48768
            CHANNELS 3 Zrotation Xrotation Yrotation
            JOINT lHand
            {
              OFFSET 22.5879 0.773209 7.07136
              CHANNELS 3 Zrotation Xrotation Yrotation
              JOINT lThumb1
              {
                OFFSET 1.2192 -0.487915 3.41376
                CHANNELS 3 Zrotation Xrotation Yrotation
                JOINT lThumb2
                {
                  OFFSET 3.37035 -0.52449 3.41376
                  CHANNELS 3 Zrotation Xrotation Yrotation
                  End Site
                  {
                    OFFSET 1.78271 -1.18214 1.43049
                  }
                }
              }
              JOINT lIndex1
              {
                OFFSET 7.75947 0.938293 5.60832
                CHANNELS 3 Zrotation Xrotation Yrotation
                JOINT lIndex2
                {
                  OFFSET 2.54057 -0.884171 1.56538
                  CHANNELS 3 Zrotation Xrotation Yrotation
                  End Site
                  {
                    OFFSET 1.62519 -0.234802 1.16502
                  }
                }
              }
              JOINT lMid1
              {
                OFFSET 8.24714 1.18213 3.41376
                CHANNELS 3 Zrotation Xrotation Yrotation
                JOINT lMid2
                {
                  OFFSET 3.10165 -0.590103 1.0647
                  CHANNELS 3 Zrotation Xrotation Yrotation
                  End Site
                  {
                    OFFSET 2.48547 -0.328903 0.83742
                  }
                }
              }
              JOINT lRing1
              {
                OFFSET 8.82822 0.546677 1.51678
                CHANNELS 3 Zrotation Xrotation Yrotation
                JOINT lRing2
                {
                  OFFSET 2.60934 -0.819778 -0.0198488
                  CHANNELS 3 Zrotation Xrotation Yrotation
                  End Site
                  {
                    OFFSET 2.33842 -0.294052 0.168128
                  }
                }
              }
              JOINT lPinky1
              {
                OFFSET 8.27202 -0.0477905 -0.4584
                CHANNELS 3 Zrotation Xrotation Yrotation
                JOINT lPinky2
                {
                  OFFSET 1.82734 -0.647385 -0.700984
                  CHANNELS 3 Zrotation Xrotation Yrotation
                  End Site
                  {
                    OFFSET 1.69225 -0.51767 -0.607171
                  }
                }
              }
            }
          }
        }
      }
    }
  }
  JOINT rButtock
  {
    OFFSET -8.77824 4.35084 1.2192
    CHANNELS 3 Zrotation Xrotation Yrotation
    JOINT rThigh
    {
      OFFSET 0 -1.70687 -2.19456
      CHANNELS 3 Zrotation Xrotation Yrotation
      JOINT rShin
      {
        OFFSET 0 -36.8199 0.73152
        CHANNELS 3 Zrotation Xrotation Yrotation
        JOINT rFoot
        {
          OFFSET 0.73152 -45.1104 -5.12064
          CHANNELS 3 Zrotation Xrotation Yrotation
          End Site
          {
            OFFSET -1.1221 -3.69964 12.103
          }
        }
      }
    }
  }
  JOINT lButtock
  {
    OFFSET 8.77824 4.35084 1.2192
    CHANNELS 3 Zrotation Xrotation Yrotation
    JOINT lThigh
    {
      OFFSET 0 -1.70687 -2.19456
      CHANNELS 3 Zrotation Xrotation Yrotation
      JOINT lShin
      {
        OFFSET 0 -36.8199 0.73152
        CHANNELS 3 Zrotation Xrotation Yrotation
        JOINT lFoot
        {
          OFFSET -0.73152 -45.1104 -5.12064
          CHANNELS 3 Zrotation Xrotation Yrotation
          End Site
          {
            OFFSET 1.1221 -3.69964 12.103
          }
        }
      }
    }
  }
}
MOTION
Frames:	4
Frame Time:	0.03333
12.366399991860536 71.1707009251271 80.49170005624568 -12.724699974060059 -26.630998611450195 9.075900077819824 7.116679668426514 10.935699462890625 11.465999603271484 -1.2986398935317993 -7.839860916137695 3.222099542617798 -2.8323099613189697 14.722002983093262 1.3357599973678589 7.608238697052002 -27.22820472717285 4.558099746704102 -0.0 0.0 -0.0 -0.0 0.0 -0.0 -2.710839907583973e-13 -6.639419916631972e-13 6.140459776933505e-13 81.85440063476562 47.73470687866211 -21.970300674438477 -28.378599166870117 -37.391807556152344 79.3628921508789 -0.09668669104576111 8.834280967712402 1.2516099214553833 6.164750043780032e-09 3.4553602201725653e-09 -9.059399452837624e-09 1.0592000165843274e-08 6.421440268411516e-09 -1.5700798883244715e-08 6.164750043780032e-09 3.4553602201725653e-09 -9.059399452837624e-09 7.730909824371338 5.474879741668701 0.4173140823841095 6.164750043780032e-09 3.4553602201725653e-09 -9.05941011097866e-09 2.9055399894714355 0.9651829600334167 0.10290199518203735 6.164750043780032e-09 3.455369990135182e-09 -9.05941011097866e-09 10.27859878540039 0.73180091381073 0.025912316516041756 6.164750043780032e-09 3.455369990135182e-09 -9.05941011097866e-09 2.221669912338257 -0.733487069606781 -0.208919957280159 -2.7116899220872015e-13 -6.639399858891781e-13 6.137969906644392e-13 -54.83369445800781 37.75839614868164 -22.170101165771484 28.29199981689453 -32.80769729614258 -71.75849914550781 0.8320220708847046 -24.982101440429688 3.754509925842285 -1.1819799583534518e-09 2.2495498797070468e-08 4.080139781592607e-09 -2.1212998024822127e-09 3.892710154218548e-08 7.020500181198486e-09 -1.1819799583534518e-09 2.2495498797070468e-08 4.080149551555223e-09 -7.730909824371338 5.474879741668701 -0.4173140823841095 -1.1819799583534518e-09 2.2495498797070468e-08 4.08013001162999e-09 -2.9055399894714355 0.9651829600334167 -0.10290199518203735 -1.1819899503606734e-09 2.2495600049410314e-08 4.080139781592607e-09 -10.27859878540039 0.73180091381073 -0.025912316516041756 -1.1819899503606734e-09 2.2495498797070468e-08 4.080139781592607e-09 -2.221669912338257 -0.733487069606781 0.208919957280159 -2.0321699480147914e-16 0.0 -3.8825099822884138e-19 -5.403110027313232 -8.501490592956543 -9.831212043762207 -0.5410809516906738 52.27109909057617 1.7383800745010376 -14.613699913024902 -19.48979949951172 -25.96579933166504 2.0321699480147914e-16 0.0 3.8825099822884138e-19 54.74209976196289 -56.54360580444336 44.16180419921875 1.6822000741958618 65.75141143798828 -1.5629699230194092 0.5604270100593567 0.6073749661445618 0.20108400285243988
12.2865999902909 71.28210131049 80.94290005830004 -12.589900970458984 -26.456300735473633 9.391500473022461 7.3270792961120605 10.050601959228516 11.567399024963379 -1.2948200702667236 -7.7142205238342285 3.2472901344299316 -2.834009885787964 14.821500778198242 1.2493900060653687 7.711619853973389 -27.253400802612305 4.407760143280029 -0.0 0.0 -0.0 -0.0 0.0 -0.0 -2.1593199504930244e-13 -3.4503899303678365e-13 5.846570515048721e-13 81.79000091552734 47.962005615234375 -22.111797332763672 -28.373798370361328 -37.45989990234375 79.48079681396484 -0.0912724956870079 8.581289291381836 1.2152299880981445 3.922669744582663e-09 3.782190116652373e-09 -6.174650124535219e-09 6.735909607868962e-09 6.842870270418189e-09 -1.0699799268820698e-08 3.922669744582663e-09 3.78219988661499e-09 -6.174659894497836e-09 7.730909824371338 5.474879741668701 0.4173140823841095 3.922669744582663e-09 3.78219988661499e-09 -6.174659894497836e-09 2.9055399894714355 0.9651829600334167 0.10290199518203735 3.92267995863449e-09 3.7822096565776064e-09 -6.174650124535219e-09 10.27859878540039 0.73180091381073 0.025912316516041756 3.922669744582663e-09 3.78219988661499e-09 -6.174650124535219e-09 2.221669912338257 -0.733487069606781 -0.208919957280159 -2.1595397724834958e-13 -3.450420016978123e-13 5.844550104300295e-13 -53.8096923828125 36.99800491333008 -23.595703125 28.353899002075195 -33.52779769897461 -72.92799377441406 0.8323928713798523 -24.978397369384766 3.7541496753692627 -8.424539954532406e-10 1.3857600400513093e-08 2.6140598574642127e-09 -1.507790003962839e-09 2.3999700005106206e-08 4.5005896787131405e-09 -8.424630437708913e-10 1.3857600400513093e-08 2.614070071516039e-09 -7.730909824371338 5.474879741668701 -0.4173140823841095 -8.424489994496298e-10 1.3857600400513093e-08 2.614050087501596e-09 -2.9055399894714355 0.9651829600334167 -0.10290199518203735 -8.42457936744978e-10 1.3857499148173247e-08 2.614050087501596e-09 -10.27859878540039 0.73180091381073 -0.025912316516041756 -8.424499431392007e-10 1.3857499148173247e-08 2.614050087501596e-09 -2.221669912338257 -0.733487069606781 0.208919957280159 -2.0321699480147914e-16 0.0 -3.8825099822884138e-19 -4.699199676513672 -6.8555707931518555 -8.436367988586426 -0.4469139873981476 49.834800720214844 1.7147998809814453 -14.706897735595703 -19.221004486083984 -26.62249755859375 2.0321699480147914e-16 0.0 3.8825099822884138e-19 56.214195251464844 -56.183597564697266 47.382904052734375 1.6943198442459106 66.00259399414062 -1.6320198774337769 0.6781190633773804 1.0549801588058472 1.8776099681854248
12.203799988210898 71.31509795437033 81.28520005783626 -12.84360122680664 -26.155702590942383 9.84739875793457 7.7273712158203125 9.173859596252441 11.55359935760498 -1.3398300409317017 -7.6233601570129395 3.238070011138916 -2.793259859085083 14.859301567077637 1.1710699796676636 7.71983003616333 -27.16029930114746 4.243959903717041 -0.0 0.0 -0.0 -0.0 0.0 -0.0 -7.296900171767373e-14 4.1350698364549243e-14 3.4354997687814637e-13 81.63379669189453 48.149497985839844 -22.12740135192871 -28.372398376464844 -37.4850959777832 79.52249908447266 -0.0892144963145256 8.489339828491211 1.2020000219345093 7.445870031652646e-10 3.435810080887336e-09 -1.7703598587104352e-09 1.2743799349124174e-09 6.024170051688316e-09 -3.0662097305622638e-09 7.445850047638203e-10 3.435810080887336e-09 -1.7703700727622618e-09 7.730909824371338 5.474879741668701 0.4173140823841095 7.445860039645424e-10 3.4358298428571743e-09 -1.7703598587104352e-09 2.9055399894714355 0.9651829600334167 0.10290199518203735 7.445969951724862e-10 3.4358298428571743e-09 -1.7703598587104352e-09 10.27859878540039 0.73180091381073 0.025912316516041756 7.445860039645424e-10 3.435810080887336e-09 -1.770349977725516e-09 2.221669912338257 -0.733487069606781 -0.208919957280159 -7.294370592573693e-14 4.134429818359979e-14 3.4340098039459255e-13 -52.914894104003906 36.22300338745117 -24.81410026550293 28.39569854736328 -34.200199127197266 -74.02790069580078 0.8085429668426514 -24.6549015045166 3.698579788208008 -3.8230300869468437e-11 3.746609689159186e-09 1.0150499329952822e-09 -8.673649992685384e-11 6.5580998409586755e-09 1.7579498967634777e-09 -3.824939670549199e-11 3.746659871239899e-09 1.0150799090169471e-09 -7.730909824371338 5.474879741668701 -0.4173140823841095 -3.822690081145552e-11 3.746629673173629e-09 1.0150499329952822e-09 -2.9055399894714355 0.9651829600334167 -0.10290199518203735 -3.823559871496407e-11 3.746599919196569e-09 1.0150499329952822e-09 -10.27859878540039 0.73180091381073 -0.025912316516041756 -3.821909802526058e-11 3.746609689159186e-09 1.0150499329952822e-09 -2.221669912338257 -0.733487069606781 0.208919957280159 -2.0321699480147914e-16 0.0 -3.8825099822884138e-19 -3.913119316101074 -5.19182014465332 -7.090280055999756 -0.3633219599723816 47.4036979675293 1.6977801322937012 -14.86240005493164 -19.004901885986328 -27.35089874267578 2.0321699480147914e-16 0.0 3.8825099822884138e-19 57.690101623535156 -55.981101989746094 50.0839958190918 1.7162598371505737 66.33679962158203 -1.7085100412368774 0.7563899159431458 1.2041101455688477 3.125190019607544
12.094099986445991 71.29630127377446 81.56230005873131 -13.40619945526123 -25.663700103759766 10.467198371887207 8.763050079345703 8.377559661865234 11.302999496459961 -1.4859099388122559 -7.552180767059326 3.168059825897217 -2.6899502277374268 14.814200401306152 1.1733797788619995 7.6546807289123535 -26.90679931640625 4.2134599685668945 -0.0 0.0 -0.0 -0.0 0.0 -0.0 2.5096499314467e-13 1.0098399980812411e-13 3.2743599498452625e-13 81.39830017089844 48.403194427490234 -22.170000076293945 -28.36809730529785 -37.5482063293457 79.63040161132812 -0.08971259742975235 8.51077938079834 1.2050800323486328 1.1159100310464964e-09 4.539900011479858e-09 -2.3838200302606083e-09 1.91391991144485e-09 7.968120385726252e-09 -4.13122025477719e-09 1.1158999280169724e-09 4.539909781442475e-09 -2.3838400142750515e-09 7.730909824371338 5.474879741668701 0.4173140823841095 1.1159100310464964e-09 4.5399199954943015e-09 -2.383829800223225e-09 2.9055399894714355 0.9651829600334167 0.10290199518203735 1.1159199120314156e-09 4.539909781442475e-09 -2.383829800223225e-09 10.27859878540039 0.73180091381073 0.025912316516041756 1.1159100310464964e-09 4.539909781442475e-09 -2.3838200302606083e-09 2.221669912338257 -0.733487069606781 -0.208919957280159 2.509710104667273e-13 1.0098199403410502e-13 3.2732700556113714e-13 -52.1807975769043 35.342708587646484 -25.894601821899414 28.421100616455078 -34.82240295410156 -75.05069732666016 0.8160459399223328 -24.759700775146484 3.716479539871216 -2.279059996279642e-10 5.06324937532554e-09 1.4785398461114596e-09 -4.1553599450239176e-10 8.810789431379362e-09 2.5453599228342227e-09 -2.2791998843807448e-10 5.06328001748102e-09 1.4785599411482053e-09 -7.730909824371338 5.474879741668701 -0.4173140823841095 -2.2790500042724204e-10 5.0632604775557866e-09 1.4785398461114596e-09 -2.9055399894714355 0.9651829600334167 -0.10290199518203735 -2.279170047136958e-10 5.0632400494521335e-09 1.4785398461114596e-09 -10.27859878540039 0.73180091381073 -0.025912316516041756 -2.2789897746733345e-10 5.0632400494521335e-09 1.4785299651265404e-09 -2.221669912338257 -0.733487069606781 0.208919957280159 -2.0321699480147914e-16 0.0 -3.8825099822884138e-19 -2.7321202754974365 -3.709500551223755 -6.022660255432129 -0.2935110032558441 44.99860763549805 1.6747701168060303 -15.130799293518066 -18.872100830078125 -28.2002010345459 2.0321699480147914e-16 0.0 3.8825099822884138e-19 59.28860092163086 -56.14559555053711 51.34629821777344 1.7643598318099976 66.87540435791016 -1.8027400970458984 0.7294461131095886 0.49233803153038025 2.4932198524475098
